<svg width="51" height="51" viewBox="0 0 51 51" fill="none" xmlns="http://www.w3.org/2000/svg">
<path d="M6.375 23.375H23.375V6.375H6.375V23.375ZM10.625 10.625H19.125V19.125H10.625V10.625ZM6.375 44.625H23.375V27.625H6.375V44.625ZM10.625 31.875H19.125V40.375H10.625V31.875ZM27.625 6.375V23.375H44.625V6.375H27.625ZM40.375 19.125H31.875V10.625H40.375V19.125ZM27.6462 27.625H31.8962V31.875H27.6462V27.625ZM31.8962 31.875H36.1462V36.125H31.8962V31.875ZM27.6462 36.125H31.8962V40.375H27.6462V36.125ZM36.1462 36.125H40.3963V40.375H36.1462V36.125ZM40.3963 40.375H44.6463V44.625H40.3963V40.375ZM31.8962 40.375H36.1462V44.625H31.8962V40.375ZM36.1462 27.625H40.3963V31.875H36.1462V27.625ZM40.3963 31.875H44.6463V36.125H40.3963V31.875Z" fill="#C25733"/>
</svg>
