<svg width="652" height="872" viewBox="0 0 652 872" fill="none" xmlns="http://www.w3.org/2000/svg">
<path d="M0 871.84V212.124C67.5169 -54.0748 570.983 -86.8662 652 212.124V871.84H393.517H314.428H0Z" fill="#C25733"/>
<path d="M335.645 821.751C331.88 844.535 327.398 855.29 316.355 871.903H395.444C439.811 814.035 447.527 642.355 447.527 642.355V482.248C444.36 341.791 399.302 216.047 335.645 171.68V142.746H229.55V171.68C175.538 221.834 136.959 268.13 133.101 358.793V387.728C133.101 387.728 266.201 385.799 279.704 387.728C293.207 389.657 298.994 403.16 289.349 418.592C279.704 434.024 221.834 520.828 217.976 547.834C214.926 569.184 320.213 619.207 335.645 657.787C351.077 696.367 339.41 798.968 335.645 821.751Z" fill="white"/>
<path d="M244.982 410.876H34.7219V841.041H298.994C317.721 799.628 320.111 769.241 316.355 707.941C312.599 668.609 303.905 652.764 279.704 632.71L208.331 580.627C194.828 567.124 190.97 544.217 202.544 522.757C214.118 501.297 248.84 432.095 248.84 432.095C257.562 415.66 257.342 410.516 244.982 410.876Z" fill="white"/>
<path d="M624.994 295.136H524.686C553.232 339.517 561.381 362.651 563.266 401.231C561.335 449.519 528.542 499.673 532.402 547.834C533.646 563.353 563.266 623.128 563.266 665.503C563.266 706.176 538.189 719.578 538.189 767.803V841.041H624.994V295.136Z" fill="white"/>
</svg>
