<svg width="861" height="872" viewBox="0 0 861 872" fill="none" xmlns="http://www.w3.org/2000/svg">
<ellipse cx="430.044" cy="436" rx="430.044" ry="436" fill="#C25733"/>
<g filter="url(#filter0_d_996_114)">
<path d="M226.339 705.183V297.774C268.034 133.382 578.951 113.131 628.984 297.774V705.183H469.356H420.515H226.339Z" fill="white"/>
</g>
<path d="M433.618 674.251C431.293 688.322 428.525 694.963 421.705 705.222H470.546C497.945 669.486 502.71 563.464 502.71 563.464V464.59C500.755 377.85 472.929 300.197 433.618 272.798V254.929H368.098V272.798C334.743 303.77 310.918 332.361 308.536 388.35V406.219C308.536 406.219 390.732 405.027 399.071 406.219C407.41 407.41 410.984 415.749 405.027 425.279C399.071 434.809 363.333 488.415 360.951 505.093C359.067 518.278 424.087 549.169 433.618 572.995C443.148 596.82 435.942 660.181 433.618 674.251Z" fill="#C25733"/>
<path d="M377.628 420.514H247.781V686.164H410.984C422.549 660.589 424.025 641.823 421.705 603.967C419.385 579.678 414.017 569.893 399.071 557.508L354.995 525.344C346.656 517.005 344.273 502.859 351.421 489.607C358.568 476.354 380.011 433.617 380.011 433.617C385.397 423.468 385.261 420.292 377.628 420.514Z" fill="#C25733"/>
<path d="M612.306 349.038H550.361C567.989 376.446 573.021 390.732 574.186 414.557C572.993 444.378 552.742 475.35 555.126 505.093C555.894 514.677 574.186 551.591 574.186 577.76C574.186 602.877 558.699 611.154 558.699 640.935V686.164H612.306V349.038Z" fill="#C25733"/>
<defs>
<filter id="filter0_d_996_114" x="222.339" y="166.776" width="410.645" height="546.407" filterUnits="userSpaceOnUse" color-interpolation-filters="sRGB">
<feFlood flood-opacity="0" result="BackgroundImageFix"/>
<feColorMatrix in="SourceAlpha" type="matrix" values="0 0 0 0 0 0 0 0 0 0 0 0 0 0 0 0 0 0 127 0" result="hardAlpha"/>
<feOffset dy="4"/>
<feGaussianBlur stdDeviation="2"/>
<feComposite in2="hardAlpha" operator="out"/>
<feColorMatrix type="matrix" values="0 0 0 0 0 0 0 0 0 0 0 0 0 0 0 0 0 0 0.25 0"/>
<feBlend mode="normal" in2="BackgroundImageFix" result="effect1_dropShadow_996_114"/>
<feBlend mode="normal" in="SourceGraphic" in2="effect1_dropShadow_996_114" result="shape"/>
</filter>
</defs>
</svg>
